<?xml version="1.0" encoding="UTF-8"?><svg id="a" xmlns="http://www.w3.org/2000/svg" viewBox="0 0 113.35 50.25"><defs><style>.b{fill:#4f24d9;}.c{fill:none;}</style></defs><polygon class="b" points="49.01 33.54 43.29 33.54 43.29 .67 70.79 .67 70.79 6.39 49.01 6.39 49.01 33.54"/><path class="b" d="M19.5,33.49H1.62v-5.36H19.5c2.29,0,4.15-1.86,4.15-4.15s-1.86-4.15-4.15-4.15H9.51C4.27,19.83,0,15.56,0,10.32S4.27,.81,9.51,.81H27.55V6.16H9.51c-2.29,0-4.15,1.86-4.15,4.15s1.86,4.15,4.15,4.15h9.99c5.24,0,9.51,4.27,9.51,9.51s-4.27,9.51-9.51,9.51"/><path class="b" d="M107.4,37.03c-1.82,4.38-6.32,7.5-11.6,7.5s-9.78-3.12-11.6-7.5h-5.98c2,7.57,9.09,13.21,17.58,13.21s15.59-5.64,17.58-13.21h-5.98Z"/><path class="b" d="M113.35,.69h-5.66V4.7c-3.2-2.9-7.48-4.7-12.21-4.7-9.86,0-17.87,7.71-17.87,17.18s8.02,17.17,17.87,17.17,17.64-7.52,17.84-16.83h.04V.69Zm-17.88,27.95c-6.7,0-12.16-5.14-12.16-11.46s5.46-11.46,12.16-11.46,12.16,5.14,12.16,11.46-5.45,11.46-12.16,11.46"/><rect class="c" x="-230.86" y="-154.2" width="576" height="360"/></svg>